<?xml version="1.0" encoding="UTF-8" standalone="no"?>
<!DOCTYPE svg PUBLIC "-//W3C//DTD SVG 1.1//EN"
 "http://www.w3.org/Graphics/SVG/1.1/DTD/svg11.dtd">
<!-- Generated by graphviz version 2.46.0 (20210118.1747)
 -->
<!-- Title: Tree Pages: 1 -->
<svg width="320pt" height="165pt"
 viewBox="0.00 0.00 319.50 165.00" xmlns="http://www.w3.org/2000/svg" xmlns:xlink="http://www.w3.org/1999/xlink">
<g id="graph0" class="graph" transform="scale(1 1) rotate(0) translate(4 161)">
<title>Tree</title>
<polygon fill="white" stroke="transparent" points="-4,4 -4,-161 315.5,-161 315.5,4 -4,4"/>
<!-- 0 -->
<g id="node1" class="node">
<title>0</title>
<polygon fill="#e6843e" stroke="black" points="241,-157 82,-157 82,-89 241,-89 241,-157"/>
<text text-anchor="middle" x="161.5" y="-141.8" font-family="Helvetica,sans-Serif" font-size="14.00">fat &lt;= 0.5</text>
<text text-anchor="middle" x="161.5" y="-126.8" font-family="Helvetica,sans-Serif" font-size="14.00">samples = 51519</text>
<text text-anchor="middle" x="161.5" y="-111.8" font-family="Helvetica,sans-Serif" font-size="14.00">value = [50339, 1180]</text>
<text text-anchor="middle" x="161.5" y="-96.8" font-family="Helvetica,sans-Serif" font-size="14.00">class = NO VICTIMAS</text>
</g>
<!-- 1 -->
<g id="node2" class="node">
<title>1</title>
<polygon fill="#e58139" stroke="black" points="159,-53 0,-53 0,0 159,0 159,-53"/>
<text text-anchor="middle" x="79.5" y="-37.8" font-family="Helvetica,sans-Serif" font-size="14.00">samples = 50339</text>
<text text-anchor="middle" x="79.5" y="-22.8" font-family="Helvetica,sans-Serif" font-size="14.00">value = [50339, 0]</text>
<text text-anchor="middle" x="79.5" y="-7.8" font-family="Helvetica,sans-Serif" font-size="14.00">class = NO VICTIMAS</text>
</g>
<!-- 0&#45;&gt;1 -->
<g id="edge1" class="edge">
<title>0&#45;&gt;1</title>
<path fill="none" stroke="black" d="M132.82,-88.95C124.96,-79.89 116.44,-70.07 108.56,-60.99"/>
<polygon fill="black" stroke="black" points="111.03,-58.5 101.83,-53.24 105.74,-63.08 111.03,-58.5"/>
<text text-anchor="middle" x="100.07" y="-74.47" font-family="Helvetica,sans-Serif" font-size="14.00">True</text>
</g>
<!-- 2 -->
<g id="node3" class="node">
<title>2</title>
<polygon fill="#399de5" stroke="black" points="311.5,-53 177.5,-53 177.5,0 311.5,0 311.5,-53"/>
<text text-anchor="middle" x="244.5" y="-37.8" font-family="Helvetica,sans-Serif" font-size="14.00">samples = 1180</text>
<text text-anchor="middle" x="244.5" y="-22.8" font-family="Helvetica,sans-Serif" font-size="14.00">value = [0, 1180]</text>
<text text-anchor="middle" x="244.5" y="-7.8" font-family="Helvetica,sans-Serif" font-size="14.00">class = VICTIMAS</text>
</g>
<!-- 0&#45;&gt;2 -->
<g id="edge2" class="edge">
<title>0&#45;&gt;2</title>
<path fill="none" stroke="black" d="M190.53,-88.95C198.48,-79.89 207.11,-70.07 215.09,-60.99"/>
<polygon fill="black" stroke="black" points="217.93,-63.06 221.9,-53.24 212.67,-58.44 217.93,-63.06"/>
<text text-anchor="middle" x="223.51" y="-74.48" font-family="Helvetica,sans-Serif" font-size="14.00">False</text>
</g>
</g>
</svg>